<!DOCTYPE svg PUBLIC "-//W3C//DTD SVG 1.1//EN" "http://www.w3.org/Graphics/SVG/1.1/DTD/svg11.dtd">
<!-- Uploaded to: SVG Repo, www.svgrepo.com, Transformed by: SVG Repo Mixer Tools -->
<svg fill="#000000" height="800px" width="800px" version="1.1" id="Icons" xmlns="http://www.w3.org/2000/svg" xmlns:xlink="http://www.w3.org/1999/xlink" viewBox="0 0 32 32" xml:space="preserve">
<g id="SVGRepo_bgCarrier" stroke-width="0"/>
<g id="SVGRepo_tracerCarrier" stroke-linecap="round" stroke-linejoin="round"/>
<g id="SVGRepo_iconCarrier"> <path d="M25,8.9C24.9,8.4,24.5,8,24,8h-3V7c0-2.8-2.2-5-5-5s-5,2.2-5,5v1H8C7.5,8,7.1,8.4,7,8.9l-2,20c0,0.3,0.1,0.6,0.3,0.8 S5.7,30,6,30h20c0.3,0,0.6-0.1,0.7-0.3s0.3-0.5,0.3-0.8L25,8.9z M13,7c0-1.7,1.3-3,3-3s3,1.3,3,3v1h-6V7z"/> </g>
</svg>